# xmcd
#
# Track frame offsets: 
#        150
#        18244
#        29272
#        42209
#        56722
#        71394
#        86824
#        100548
#        113873
#        128420
#        142878
#        158118
#        172467
#        186152
#        201199
#
# Disc length: 2871 seconds
#
# Revision: 0
# Processed by: cddbd v1.5.2PL0 Copyright (c) Steve Scherf et al.
# Submitted via: ExactAudioCopy v0.99pb4
#
DISCID=c70b350f
DTITLE=Marc Pircher - 20 Jahre [CD 2)
DYEAR=2012
DGENRE=Country
TTITLE0=7 Sünden Hit Version
TTITLE1=Hey Diandl spürst es so wie i
TTITLE2=Lady Unbekannt
TTITLE3=Du schon wieder
TTITLE4=Wer wenn nicht du
TTITLE5=Jetzt bist da (für Anna)
TTITLE6=A guate Musi - a guate Zeit
TTITLE7=Da drob'n in die Berg is da Herrgott dahoam
TTITLE8=Ich war nie ein Casanova
TTITLE9=Sag wo ist die Zeit hin
TTITLE10=Jetzt seh' ich schon Maria Brettfall
TTITLE11=Alarmstufe rot - ich bin verliebt
TTITLE12=Sternenstaub
TTITLE13=So wird des immer sein
TTITLE14=Die alte Mühle im Zillertal
EXTD=
EXTT0=
EXTT1=
EXTT2=
EXTT3=
EXTT4=
EXTT5=
EXTT6=
EXTT7=
EXTT8=
EXTT9=
EXTT10=
EXTT11=
EXTT12=
EXTT13=
EXTT14=
PLAYORDER=
